<svg xmlns="http://www.w3.org/2000/svg" viewBox="0 0 24 24">
  <path fill="#25D366" d="M12.04 2C6.58 2 2.13 6.45 2.13 11.91c0 1.75.46 3.38 1.26 4.78L2.05 22l5.46-1.43c1.35.74 2.9 1.16 4.53 1.16 5.46 0 9.91-4.45 9.91-9.91C21.95 6.37 17.5 2 12.04 2zm5.52 14.14c-.23.65-1.33 1.24-1.83 1.32-.47.07-1.07.1-1.72-.11-.4-.13-.9-.3-1.55-.59-2.72-1.18-4.5-3.92-4.63-4.1-.13-.18-1.08-1.44-1.08-2.74s.68-1.94 1-2.21c.24-.21.54-.32.84-.32.1 0 .19 0 .28.01.25.01.37.02.54.41.2.46.69 1.68.75 1.8.06.13.1.27.02.43-.08.16-.12.26-.24.4l-.36.4c-.12.12-.24.25-.1.49.14.24.62.98 1.33 1.59.91.81 1.67 1.06 1.92 1.17.24.11.38.09.52-.05.14-.14.63-.73.8-.98.16-.25.33-.21.55-.13.23.09 1.45.68 1.7.8.25.12.41.18.47.28.06.1.06.55-.17 1.03z"/>
</svg>
